<svg xmlns="http://www.w3.org/2000/svg" viewBox="0 0 128 128" width="100%" height="100%">
  <!-- Shadow -->
  <rect x="20" y="24" width="92" height="82" rx="6" fill="#111111" />
  
  <!-- Main Frame -->
  <rect x="16" y="20" width="92" height="82" rx="6" fill="#FFFFFF" stroke="#111111" stroke-width="3.5" stroke-linejoin="round" />
  
  <!-- Left Bracket [ -->
  <polyline points="29,32 23,32 23,90 29,90" fill="none" stroke="#2563EB" stroke-width="4.5" stroke-linecap="round" stroke-linejoin="round" />

  <!-- List Items -->
  <!-- Item 0 -->
  <rect x="33" y="32" width="58" height="16" rx="3" fill="#FFD43B" stroke="#111111" stroke-width="2.5" />
  <circle cx="41" cy="40" r="3" fill="#111111" />
  <line x1="49" y1="40" x2="82" y2="40" stroke="#111111" stroke-width="2.5" stroke-linecap="round" />

  <!-- Item 1 -->
  <rect x="33" y="53" width="58" height="16" rx="3" fill="#7CFF6B" stroke="#111111" stroke-width="2.5" />
  <circle cx="41" cy="61" r="3" fill="#111111" />
  <line x1="49" y1="61" x2="74" y2="61" stroke="#111111" stroke-width="2.5" stroke-linecap="round" />

  <!-- Item 2 -->
  <rect x="33" y="74" width="58" height="16" rx="3" fill="#B58CFF" stroke="#111111" stroke-width="2.5" />
  <circle cx="41" cy="82" r="3" fill="#111111" />
  <line x1="49" y1="82" x2="68" y2="82" stroke="#111111" stroke-width="2.5" stroke-linecap="round" />

  <!-- Right Bracket ] -->
  <polyline points="95,32 101,32 101,90 95,90" fill="none" stroke="#2563EB" stroke-width="4.5" stroke-linecap="round" stroke-linejoin="round" />
</svg>
